<?xml version="1.0" standalone="no"?>
<!DOCTYPE svg PUBLIC "-//W3C//DTD SVG 20010904//EN"
 "http://www.w3.org/TR/2001/REC-SVG-20010904/DTD/svg10.dtd">
<svg version="1.0" xmlns="http://www.w3.org/2000/svg"
 width="700.000000pt" height="700.000000pt" viewBox="0 0 700.000000 700.000000"
 preserveAspectRatio="xMidYMid meet">
<metadata>
Created by potrace 1.14, written by Peter Selinger 2001-2017
</metadata>
<g transform="translate(0.000000,700.000000) scale(0.100000,-0.100000)"
fill="#000000" stroke="none">
<path d="M2695 6220 l-1480 -5 -58 -22 c-215 -82 -375 -236 -408 -394 -11 -52
-14 -443 -17 -2114 -2 -1302 1 -2106 7 -2205 10 -147 12 -158 46 -226 47 -97
155 -198 269 -254 155 -77 78 -72 1183 -77 l993 -5 2 -373 3 -373 160 85 c88
46 232 121 321 168 l161 84 317 -165 c174 -90 321 -164 326 -164 6 0 10 136
10 370 l0 370 625 0 625 0 0 405 0 405 165 0 165 0 0 2250 0 2250 -967 -2
c-533 -2 -1634 -5 -2448 -8z m2735 -4735 l0 -255 -455 0 -455 0 0 110 0 110
-645 0 -645 0 0 -110 0 -111 -967 3 c-727 3 -977 7 -1004 16 -101 34 -179 135
-179 232 1 100 53 175 159 230 l56 29 2068 1 2067 0 0 -255z"/>
</g>
</svg>
